<?xml version="1.0" encoding="UTF-8" standalone="no"?>
<!-- Created with Inkscape (http://www.inkscape.org/) -->

<svg
   inkscape:export-ydpi="90.000000"
   inkscape:export-xdpi="90.000000"
   width="480"
   height="300"
   id="svg11300"
   sodipodi:version="0.32"
   inkscape:version="1.1.2 (0a00cf5339, 2022-02-04)"
   sodipodi:docname="solaar.svg"
   inkscape:output_extension="org.inkscape.output.svg.inkscape"
   version="1.0"
   style="display:inline;enable-background:new"
   inkscape:export-filename="/home/sam/moka-next-template.png"
   xmlns:inkscape="http://www.inkscape.org/namespaces/inkscape"
   xmlns:sodipodi="http://sodipodi.sourceforge.net/DTD/sodipodi-0.dtd"
   xmlns:xlink="http://www.w3.org/1999/xlink"
   xmlns="http://www.w3.org/2000/svg"
   xmlns:svg="http://www.w3.org/2000/svg"
   xmlns:rdf="http://www.w3.org/1999/02/22-rdf-syntax-ns#"
   xmlns:cc="http://creativecommons.org/ns#"
   xmlns:dc="http://purl.org/dc/elements/1.1/">
  <sodipodi:namedview
     stroke="#ef2929"
     fill="#f57900"
     id="base"
     pagecolor="#777777"
     bordercolor="#666666"
     borderopacity="0.25490196"
     inkscape:pageopacity="0"
     inkscape:pageshadow="2"
     inkscape:zoom="6.9031981"
     inkscape:cx="404.08807"
     inkscape:cy="142.10805"
     inkscape:current-layer="layer6"
     showgrid="false"
     inkscape:grid-bbox="true"
     inkscape:document-units="px"
     inkscape:showpageshadow="false"
     inkscape:window-width="2560"
     inkscape:window-height="1385"
     inkscape:window-x="0"
     inkscape:window-y="27"
     width="400px"
     height="300px"
     inkscape:snap-nodes="true"
     inkscape:snap-bbox="true"
     gridtolerance="10000"
     inkscape:object-nodes="true"
     inkscape:snap-grids="true"
     showguides="true"
     inkscape:guide-bbox="true"
     inkscape:window-maximized="1"
     inkscape:bbox-nodes="true"
     inkscape:bbox-paths="true"
     inkscape:snap-bbox-edge-midpoints="true"
     inkscape:snap-bbox-midpoints="true"
     inkscape:pagecheckerboard="0">
    <inkscape:grid
       spacingy="1px"
       spacingx="1px"
       id="grid5883"
       type="xygrid"
       enabled="true"
       visible="true"
       empspacing="4"
       snapvisiblegridlinesonly="true"
       dotted="false"
       color="#000000"
       opacity="0.1254902"
       empcolor="#203ef3"
       empopacity="0.36470588" />
    <inkscape:grid
       type="xygrid"
       id="grid11592"
       empspacing="8"
       visible="true"
       enabled="false"
       spacingx="0.5px"
       spacingy="0.5px"
       color="#ff0000"
       opacity="0.1254902"
       empcolor="#ff0000"
       empopacity="0.25098039"
       snapvisiblegridlinesonly="true"
       dotted="true" />
  </sodipodi:namedview>
  <defs
     id="defs3">
    <linearGradient
       inkscape:collect="always"
       xlink:href="#gradient_blue"
       id="linearGradient7208"
       gradientUnits="userSpaceOnUse"
       gradientTransform="matrix(0,-1,1,0,-12,300)"
       x1="35"
       y1="156"
       x2="253"
       y2="156" />
    <linearGradient
       inkscape:collect="always"
       xlink:href="#gradient_blue"
       id="linearGradient7214"
       gradientUnits="userSpaceOnUse"
       gradientTransform="matrix(0,-1,1,0,364,500)"
       x1="418"
       y1="68"
       x2="446"
       y2="68" />
    <linearGradient
       inkscape:collect="always"
       xlink:href="#gradient_blue"
       id="linearGradient7216"
       gradientUnits="userSpaceOnUse"
       gradientTransform="matrix(0,-1,1,0,68,556)"
       x1="292"
       y1="244"
       x2="332"
       y2="244" />
    <linearGradient
       inkscape:collect="always"
       xlink:href="#gradient_blue"
       id="linearGradient7218"
       gradientUnits="userSpaceOnUse"
       gradientTransform="matrix(0,-1,1,0,260,412)"
       x1="293"
       y1="76"
       x2="379"
       y2="76" />
    <linearGradient
       inkscape:collect="always"
       xlink:href="#gradient_blue"
       id="linearGradient7220"
       gradientUnits="userSpaceOnUse"
       gradientTransform="matrix(0,-1,1,0,148,492)"
       x1="291"
       y1="172"
       x2="349"
       y2="172" />
    <linearGradient
       id="gradient_blue">
      <stop
         style="stop-color:#009099;stop-opacity:1"
         offset="0"
         id="stop9" />
      <stop
         style="stop-color:#00a899;stop-opacity:1;"
         offset="1"
         id="stop11" />
    </linearGradient>
  </defs>
  <metadata
     id="metadata4">
    <rdf:RDF>
      <cc:Work
         rdf:about="">
        <dc:format>image/svg+xml</dc:format>
        <dc:type
           rdf:resource="http://purl.org/dc/dcmitype/StillImage" />
        <dc:creator>
          <cc:Agent>
            <dc:title>Sam Hewitt</dc:title>
          </cc:Agent>
        </dc:creator>
        <dc:source />
        <cc:license
           rdf:resource="" />
        <dc:subject>
          <rdf:Bag />
        </dc:subject>
        <dc:date />
        <dc:rights>
          <cc:Agent>
            <dc:title />
          </cc:Agent>
        </dc:rights>
        <dc:publisher>
          <cc:Agent>
            <dc:title />
          </cc:Agent>
        </dc:publisher>
        <dc:identifier />
        <dc:relation />
        <dc:language />
        <dc:coverage />
        <dc:description />
        <dc:contributor>
          <cc:Agent>
            <dc:title />
          </cc:Agent>
        </dc:contributor>
      </cc:Work>
      <cc:Work
         rdf:about="">
        <dc:format>image/svg+xml</dc:format>
        <dc:type
           rdf:resource="http://purl.org/dc/dcmitype/StillImage" />
      </cc:Work>
    </rdf:RDF>
  </metadata>
  <g
     style="display:inline"
     inkscape:groupmode="layer"
     inkscape:label="Icon"
     id="layer1">
    <g
       style="display:none"
       inkscape:label="Baseplate"
       id="layer7"
       inkscape:groupmode="layer"
       sodipodi:insensitive="true">
      <text
         y="19.745117"
         xml:space="preserve"
         x="15.006836"
         style="font-style:normal;font-variant:normal;font-weight:normal;font-stretch:normal;line-height:0%;font-family:'DejaVu Sans';-inkscape-font-specification:'DejaVu Sans';display:inline;fill:#000000;fill-opacity:1;stroke:none;enable-background:new"
         inkscape:label="context"
         id="context"><tspan
           style="font-style:normal;font-variant:normal;font-weight:normal;font-stretch:normal;font-size:18px;line-height:1.25;font-family:'DejaVu Sans';-inkscape-font-specification:'DejaVu Sans'"
           y="19.745117"
           x="15.006836"
           sodipodi:role="line"
           id="tspan3933">apps</tspan></text>
      <text
         y="19.745117"
         xml:space="preserve"
         x="122.48828"
         style="font-style:normal;font-variant:normal;font-weight:bold;font-stretch:normal;line-height:0%;font-family:'DejaVu Sans';-inkscape-font-specification:'DejaVu Sans Bold';text-align:start;writing-mode:lr-tb;text-anchor:start;display:inline;fill:#000000;fill-opacity:1;stroke:none;enable-background:new"
         inkscape:label="icon-name"
         id="icon-name"><tspan
           style="font-style:normal;font-variant:normal;font-weight:bold;font-stretch:normal;font-size:18px;line-height:1.25;font-family:'DejaVu Sans';-inkscape-font-specification:'DejaVu Sans Bold'"
           y="19.745117"
           x="122.48828"
           sodipodi:role="line"
           id="tspan3937">solaar</tspan></text>
      <rect
         style="display:inline;overflow:visible;visibility:visible;fill:#eeeeec;fill-opacity:1;fill-rule:nonzero;stroke:none;stroke-width:2;marker:none;enable-background:accumulate"
         id="rect16x16"
         width="16"
         height="16"
         x="416"
         y="140"
         inkscape:label="16x16" />
      <rect
         style="display:inline;overflow:visible;visibility:visible;fill:#d4d4d4;fill-opacity:1;fill-rule:nonzero;stroke:none;stroke-width:2;marker:none;enable-background:accumulate"
         id="rect24x24"
         width="24"
         height="24"
         x="416"
         y="100"
         inkscape:label="24x24" />
      <rect
         style="display:inline;overflow:visible;visibility:visible;fill:#eeeeec;fill-opacity:1;fill-rule:nonzero;stroke:none;stroke-width:2;marker:none;enable-background:accumulate"
         id="rect32x32"
         width="32"
         height="32"
         x="416"
         y="52"
         inkscape:label="32x32" />
      <rect
         inkscape:label="22x22"
         y="101"
         x="417"
         height="22"
         width="22"
         id="rect22x22"
         style="display:inline;overflow:visible;visibility:visible;fill:#eeeeec;fill-opacity:1;fill-rule:nonzero;stroke:none;stroke-width:2;marker:none;enable-background:accumulate" />
      <rect
         inkscape:label="48x48"
         y="220"
         x="288"
         height="48"
         width="48"
         id="rect48x48"
         style="display:inline;overflow:visible;visibility:visible;fill:#eeeeec;fill-opacity:1;fill-rule:nonzero;stroke:none;stroke-width:2;marker:none;enable-background:accumulate" />
      <rect
         style="display:inline;overflow:visible;visibility:visible;fill:#eeeeec;fill-opacity:1;fill-rule:nonzero;stroke:none;stroke-width:2;marker:none;enable-background:accumulate"
         id="rect256x256"
         width="256"
         height="256"
         x="16"
         y="28"
         inkscape:label="256x256" />
      <rect
         style="display:inline;overflow:visible;visibility:visible;fill:#eeeeec;fill-opacity:1;fill-rule:nonzero;stroke:none;stroke-width:2;marker:none;enable-background:accumulate"
         id="rect64x64"
         width="64"
         height="64"
         x="288"
         y="140"
         inkscape:label="64x64" />
      <rect
         style="display:inline;overflow:visible;visibility:visible;fill:#eeeeec;fill-opacity:1;fill-rule:nonzero;stroke:none;stroke-width:2;marker:none;enable-background:accumulate"
         id="rect96x96"
         width="96"
         height="96"
         x="288"
         y="28"
         inkscape:label="96x96" />
    </g>
    <g
       inkscape:groupmode="layer"
       id="layer4"
       inkscape:label="Shadow"
       style="display:inline">
      <rect
         ry="50"
         y="47"
         x="34"
         height="220"
         width="220"
         id="rect4114"
         style="color:#bebebe;display:inline;overflow:visible;visibility:visible;opacity:0.1;fill:#000000;fill-opacity:1;fill-rule:nonzero;stroke:none;stroke-width:0;marker:none;enable-background:accumulate" />
      <rect
         style="color:#bebebe;display:inline;overflow:visible;visibility:visible;opacity:0.1;fill:#000000;fill-opacity:1;fill-rule:nonzero;stroke:none;stroke-width:0;marker:none;enable-background:accumulate"
         id="rect4120"
         width="30"
         height="30"
         x="417"
         y="54"
         ry="7" />
      <rect
         transform="scale(1,-1)"
         ry="9"
         y="-266"
         x="291"
         height="42"
         width="42"
         id="rect4122"
         style="color:#bebebe;display:inline;overflow:visible;visibility:visible;opacity:0.1;fill:#000000;fill-opacity:1;fill-rule:nonzero;stroke:none;stroke-width:0;marker:none;enable-background:accumulate" />
      <rect
         style="color:#bebebe;display:inline;overflow:visible;visibility:visible;opacity:0.1;fill:#000000;fill-opacity:1;fill-rule:nonzero;stroke:none;stroke-width:0;marker:none;enable-background:accumulate"
         id="rect4124"
         width="88"
         height="88"
         x="292"
         y="33"
         ry="18" />
      <rect
         ry="12.5"
         y="143"
         x="290"
         height="60"
         width="60"
         id="rect4126"
         style="color:#bebebe;display:inline;overflow:visible;visibility:visible;opacity:0.1;fill:#000000;fill-opacity:1;fill-rule:nonzero;stroke:none;stroke-width:0;marker:none;enable-background:accumulate" />
    </g>
    <g
       inkscape:groupmode="layer"
       id="layer2"
       inkscape:label="Background"
       style="display:inline">
      <path
         style="color:#bebebe;display:inline;overflow:visible;visibility:visible;fill:url(#linearGradient7208);fill-opacity:1;fill-rule:nonzero;stroke:none;stroke-width:2;marker:none;enable-background:accumulate"
         d="M 84,46.5 C 56.568735,46.5 34.5,68.568732 34.5,96 v 120 c 0,27.43127 22.068735,49.5 49.5,49.5 h 120 c 27.43127,0 49.5,-22.06873 49.5,-49.5 V 96 C 253.5,68.568732 231.43127,46.5 204,46.5 Z"
         id="path4200" />
      <path
         style="color:#bebebe;display:inline;overflow:visible;visibility:visible;fill:url(#linearGradient7214);fill-opacity:1;fill-rule:nonzero;stroke:none;stroke-width:2;marker:none;enable-background:accumulate"
         d="m 424,53.5 c -3.60654,0 -6.5,2.893464 -6.5,6.5 v 16 c 0,3.606536 2.89346,6.5 6.5,6.5 h 16 c 3.60654,0 6.5,-2.893464 6.5,-6.5 V 60 c 0,-3.606536 -2.89346,-6.5 -6.5,-6.5 z"
         id="path4206" />
      <path
         style="color:#bebebe;display:inline;overflow:visible;visibility:visible;fill:url(#linearGradient7216);fill-opacity:1;fill-rule:nonzero;stroke:none;stroke-width:2;marker:none;enable-background:accumulate"
         d="m 300,223.5 c -4.71531,0 -8.5,3.78469 -8.5,8.5 v 24 c 0,4.71531 3.78469,8.5 8.5,8.5 h 24 c 4.71531,0 8.5,-3.78469 8.5,-8.5 v -24 c 0,-4.71531 -3.78469,-8.5 -8.5,-8.5 z"
         id="path4208" />
      <path
         style="color:#bebebe;display:inline;overflow:visible;visibility:visible;fill:url(#linearGradient7218);fill-opacity:1;fill-rule:nonzero;stroke:none;stroke-width:2;marker:none;enable-background:accumulate"
         d="m 310,32.5 c -9.70255,0 -17.5,7.797452 -17.5,17.5 v 52 c 0,9.70255 7.79745,17.5 17.5,17.5 h 52 c 9.70255,0 17.5,-7.79745 17.5,-17.5 V 50 c 0,-9.702548 -7.79745,-17.5 -17.5,-17.5 z"
         id="path4210" />
      <path
         style="color:#bebebe;display:inline;overflow:visible;visibility:visible;fill:url(#linearGradient7220);fill-opacity:1;fill-rule:nonzero;stroke:none;stroke-width:2;marker:none;enable-background:accumulate"
         d="m 302.5,142.5 c -6.65502,0 -12,5.34498 -12,12 v 35 c 0,6.65502 5.34498,12 12,12 h 35 c 6.65502,0 12,-5.34498 12,-12 v -35 c 0,-6.65502 -5.34498,-12 -12,-12 z"
         id="path4212" />
    </g>
    <g
       inkscape:groupmode="layer"
       id="layer6"
       inkscape:label="Symbols"
       style="display:inline">
      <path
         sodipodi:nodetypes="ccsccccccccccccscccccccccccsscssscss"
         inkscape:connector-curvature="0"
         id="path3863"
         d="m 325.44643,48.44643 7.74107,13.392857 c 0.91323,-0.168458 1.85053,-0.267857 2.8125,-0.267857 0.96196,0 1.89927,0.0994 2.8125,0.267857 l 7.74107,-13.392857 8.89286,5.142857 -7.74107,13.392857 c 1.21874,1.422675 2.17331,3.073952 2.8125,4.875 H 366 v 10.285719 h -15.48214 c -0.63919,1.80104 -1.59376,3.45232 -2.8125,4.875 l 7.74107,13.392847 -8.89286,5.14286 -7.74107,-13.392857 c -0.91323,0.16847 -1.85054,0.26786 -2.8125,0.26786 -0.96197,0 -1.89927,-0.0994 -2.8125,-0.26786 l -7.74107,13.392857 -8.89286,-5.14286 7.74107,-13.392847 c -1.21874,-1.42268 -2.17332,-3.07396 -2.8125,-4.875 H 306 V 71.857144 h 15.48214 c 0.63918,-1.801048 1.59376,-3.452325 2.8125,-4.875 l -7.74107,-13.392857 z m 10.84821,18.267857 c -2.74148,-0.07856 -5.49781,0.994685 -7.46432,2.906429 -1.96651,1.911744 -3.11716,4.636674 -3.11603,7.379286 0,2.692794 1.10852,5.369001 3.01261,7.273101 1.90409,1.90409 4.58031,3.01261 7.2731,3.01261 2.69279,0 5.36901,-1.10852 7.2731,-3.01261 1.90409,-1.9041 3.01261,-4.580307 3.01261,-7.273101 8.6e-4,-2.644384 -1.06521,-5.274045 -2.90771,-7.170877 -1.84249,-1.896833 -4.44006,-3.039088 -7.08336,-3.114838 z"
         style="display:inline;opacity:0.2;fill:#000000;fill-opacity:1;fill-rule:nonzero;stroke:none;enable-background:new" />
      <path
         style="display:inline;opacity:0.2;fill:#000000;fill-opacity:1;fill-rule:nonzero;stroke:none;enable-background:new"
         d="m 312.96429,153.96429 5.16071,8.92857 c 0.60882,-0.11231 1.23369,-0.17857 1.875,-0.17857 0.64131,0 1.26618,0.0663 1.875,0.17857 l 5.16071,-8.92857 5.92858,3.42857 -5.16072,8.92857 c 0.8125,0.94845 1.44888,2.0493 1.875,3.25 H 340 v 6.85715 h -10.32143 c -0.42612,1.20069 -1.0625,2.30154 -1.875,3.25 l 5.16072,8.92856 -5.92858,3.42857 -5.16071,-8.92857 c -0.60882,0.11232 -1.23369,0.17858 -1.875,0.17858 -0.64131,0 -1.26618,-0.0663 -1.875,-0.17858 l -5.16071,8.92857 -5.92858,-3.42857 5.16072,-8.92856 c -0.8125,-0.94846 -1.44888,-2.04931 -1.875,-3.25 H 300 v -6.85715 h 10.32143 c 0.42612,-1.2007 1.0625,-2.30155 1.875,-3.25 l -5.16072,-8.92857 z m 7.23214,12.17857 c -1.82766,-0.0524 -3.66521,0.66312 -4.97622,1.93762 -1.311,1.27449 -2.0781,3.09111 -2.07735,4.91952 0,1.7952 0.73901,3.57934 2.00841,4.84874 1.26939,1.26939 3.05354,2.0084 4.84873,2.0084 1.79519,0 3.57934,-0.73901 4.84873,-2.0084 1.2694,-1.2694 2.00841,-3.05354 2.00841,-4.84874 5.7e-4,-1.76292 -0.71014,-3.51603 -1.93847,-4.78058 -1.22833,-1.26456 -2.96004,-2.02606 -4.72224,-2.07656 z"
         id="path3865"
         inkscape:connector-curvature="0"
         sodipodi:nodetypes="ccsccccccccccccscccccccccccsscssscss" />
      <path
         sodipodi:nodetypes="ccsccccccccccccscccccccccccsscssscss"
         inkscape:connector-curvature="0"
         id="path3867"
         d="m 307.075,231.675 3.6125,6.24999 C 311.11367,237.84639 311.55108,237.8 312,237.8 c 0.44892,0 0.88633,0.0464 1.3125,0.12499 l 3.6125,-6.24999 4.15,2.39999 -3.6125,6.25 c 0.56875,0.66392 1.01421,1.43451 1.3125,2.275 H 326 v 4.80002 h -7.225 c -0.29829,0.84048 -0.74375,1.61107 -1.3125,2.275 l 3.6125,6.24999 -4.15,2.4 -3.6125,-6.25 c -0.42617,0.0786 -0.86358,0.12501 -1.3125,0.12501 -0.44892,0 -0.88633,-0.0464 -1.3125,-0.12501 l -3.6125,6.25 -4.15,-2.4 3.6125,-6.24999 c -0.56875,-0.66392 -1.01422,-1.43452 -1.3125,-2.275 H 298 V 242.6 h 7.225 c 0.29828,-0.84049 0.74375,-1.61108 1.3125,-2.275 l -3.6125,-6.25 z m 5.0625,8.52499 c -1.27936,-0.0367 -2.56565,0.46419 -3.48335,1.35634 -0.9177,0.89214 -1.45467,2.16378 -1.45415,3.44366 0,1.25664 0.51731,2.50554 1.40589,3.39412 0.88857,0.88857 2.13748,1.40588 3.39411,1.40588 1.25663,0 2.50554,-0.51731 3.39411,-1.40588 0.88858,-0.88858 1.40589,-2.13748 1.40589,-3.39412 4e-4,-1.23404 -0.4971,-2.46122 -1.35693,-3.3464 -0.85983,-0.88519 -2.07203,-1.41824 -3.30557,-1.45359 z"
         style="display:inline;opacity:0.2;fill:#000000;fill-opacity:1;fill-rule:nonzero;stroke:none;enable-background:new" />
      <path
         style="display:inline;opacity:0.2;fill:#000000;fill-opacity:1;fill-rule:nonzero;stroke:none;enable-background:new"
         d="m 117.61608,85.616075 19.35267,33.482145 c 2.28308,-0.42115 4.62632,-0.66965 7.03125,-0.66965 2.4049,0 4.74817,0.24851 7.03125,0.66965 l 19.35267,-33.482145 22.23215,12.857142 -19.35267,33.482143 c 3.04685,3.55669 5.43328,7.68488 7.03125,12.1875 H 219 v 25.7143 h -38.70535 c -1.59797,4.5026 -3.9844,8.6308 -7.03125,12.1875 l 19.35267,33.48212 -22.23215,12.85714 -19.35267,-33.48214 c -2.28308,0.42118 -4.62635,0.66965 -7.03125,0.66965 -2.40493,0 -4.74817,-0.2485 -7.03125,-0.66965 l -19.35267,33.48214 -22.23215,-12.85714 19.35267,-33.48212 c -3.04685,-3.5567 -5.4333,-7.6849 -7.03125,-12.1875 H 69 v -25.7143 h 38.70535 c 1.59795,-4.50262 3.9844,-8.63081 7.03125,-12.1875 L 95.38393,98.473217 Z m 27.12052,45.669645 c -6.8537,-0.1964 -13.74453,2.48671 -18.6608,7.26607 -4.91627,4.77936 -7.7929,11.59168 -7.79008,18.44821 0,6.73199 2.77131,13.42251 7.53153,18.18276 4.76023,4.76022 11.45077,7.53152 18.18275,7.53152 6.73198,0 13.42252,-2.7713 18.18275,-7.53152 4.76022,-4.76025 7.53153,-11.45077 7.53153,-18.18276 0.002,-6.61096 -2.66303,-13.18511 -7.26928,-17.92719 -4.60623,-4.74208 -11.10015,-7.59772 -17.7084,-7.78709 z"
         id="path3869"
         inkscape:connector-curvature="0"
         sodipodi:nodetypes="ccsccccccccccccscccccccccccsscssscss" />
      <path
         style="display:inline;opacity:0.2;fill:#000000;fill-opacity:1;fill-rule:nonzero;stroke:none;enable-background:new"
         d="m 428.48214,59.482144 2.58036,4.464285 c 0.30441,-0.05615 0.61684,-0.08928 0.9375,-0.08928 0.32065,0 0.63309,0.03313 0.9375,0.08928 l 2.58036,-4.464285 2.96428,1.714285 -2.58035,4.464286 c 0.40624,0.474225 0.72443,1.024651 0.9375,1.625 H 442 v 3.428573 h -5.16071 c -0.21307,0.600347 -0.53126,1.150773 -0.9375,1.625 l 2.58035,4.464279 -2.96428,1.71429 -2.58036,-4.46429 c -0.30441,0.0562 -0.61685,0.0893 -0.9375,0.0893 -0.32066,0 -0.63309,-0.0331 -0.9375,-0.0893 l -2.58036,4.46429 -2.96428,-1.71429 2.58035,-4.464279 c -0.40624,-0.474227 -0.72444,-1.024653 -0.9375,-1.625 H 422 v -3.428573 h 5.16071 c 0.21306,-0.600349 0.53126,-1.150775 0.9375,-1.625 l -2.58035,-4.464286 z m 3.61607,6.089285 c -0.91382,-0.02619 -1.8326,0.331562 -2.4881,0.96881 -0.65551,0.637248 -1.03906,1.545558 -1.03868,2.459762 0,0.897598 0.36951,1.789667 1.0042,2.424367 0.6347,0.634697 1.52677,1.004203 2.42437,1.004203 0.8976,0 1.78967,-0.369506 2.42437,-1.004203 0.63469,-0.6347 1.0042,-1.526769 1.0042,-2.424367 2.9e-4,-0.881461 -0.35507,-1.758015 -0.96924,-2.390292 -0.61416,-0.632278 -1.48002,-1.01303 -2.36112,-1.03828 z"
         id="path3871"
         inkscape:connector-curvature="0"
         sodipodi:nodetypes="ccsccccccccccccscccccccccccsscssscss" />
      <path
         style="display:inline;fill:#ffffff;fill-opacity:1;fill-rule:nonzero;stroke:none;enable-background:new"
         d="m 325.44643,47.44643 7.74107,13.392857 c 0.91323,-0.168458 1.85053,-0.267857 2.8125,-0.267857 0.96196,0 1.89927,0.0994 2.8125,0.267857 l 7.74107,-13.392857 8.89286,5.142857 -7.74107,13.392857 c 1.21874,1.422675 2.17331,3.073952 2.8125,4.875 H 366 v 10.285719 h -15.48214 c -0.63919,1.80104 -1.59376,3.45232 -2.8125,4.875 l 7.74107,13.39285 -8.89286,5.142857 -7.74107,-13.392857 c -0.91323,0.16847 -1.85054,0.26786 -2.8125,0.26786 -0.96197,0 -1.89927,-0.0994 -2.8125,-0.26786 l -7.74107,13.392857 -8.89286,-5.142857 7.74107,-13.39285 c -1.21874,-1.42268 -2.17332,-3.07396 -2.8125,-4.875 H 306 V 70.857144 h 15.48214 c 0.63918,-1.801048 1.59376,-3.452325 2.8125,-4.875 l -7.74107,-13.392857 z m 10.84821,18.267857 c -2.74148,-0.07856 -5.49781,0.994685 -7.46432,2.906429 -1.96651,1.911744 -3.11716,4.636674 -3.11603,7.379286 0,2.692794 1.10852,5.369001 3.01261,7.273101 1.90409,1.90409 4.58031,3.01261 7.2731,3.01261 2.69279,0 5.36901,-1.10852 7.2731,-3.01261 1.90409,-1.9041 3.01261,-4.580307 3.01261,-7.273101 8.6e-4,-2.644384 -1.06521,-5.274045 -2.90771,-7.170877 -1.84249,-1.896833 -4.44006,-3.039088 -7.08336,-3.114838 z"
         id="path19"
         inkscape:connector-curvature="0"
         sodipodi:nodetypes="ccsccccccccccccscccccccccccsscssscss" />
      <path
         sodipodi:nodetypes="ccsccccccccccccscccccccccccsscssscss"
         inkscape:connector-curvature="0"
         id="path3851"
         d="m 312.96429,152.96429 5.16071,8.92857 c 0.60882,-0.11231 1.23369,-0.17857 1.875,-0.17857 0.64131,0 1.26618,0.0663 1.875,0.17857 l 5.16071,-8.92857 5.92858,3.42857 -5.16072,8.92857 c 0.8125,0.94845 1.44888,2.0493 1.875,3.25 H 340 v 6.85715 h -10.32143 c -0.42612,1.20069 -1.0625,2.30154 -1.875,3.25 l 5.16072,8.92856 -5.92858,3.42857 -5.16071,-8.92857 c -0.60882,0.11232 -1.23369,0.17858 -1.875,0.17858 -0.64131,0 -1.26618,-0.0663 -1.875,-0.17858 l -5.16071,8.92857 -5.92858,-3.42857 5.16072,-8.92856 c -0.8125,-0.94846 -1.44888,-2.04931 -1.875,-3.25 H 300 v -6.85715 h 10.32143 c 0.42612,-1.2007 1.0625,-2.30155 1.875,-3.25 l -5.16072,-8.92857 z m 7.23214,12.17857 c -1.82766,-0.0524 -3.66521,0.66312 -4.97622,1.93762 -1.311,1.27449 -2.0781,3.09111 -2.07735,4.91952 0,1.7952 0.73901,3.57934 2.00841,4.84874 1.26939,1.26939 3.05354,2.0084 4.84873,2.0084 1.79519,0 3.57934,-0.73901 4.84873,-2.0084 1.2694,-1.2694 2.00841,-3.05354 2.00841,-4.84874 5.7e-4,-1.76292 -0.71014,-3.51603 -1.93847,-4.78058 -1.22833,-1.26456 -2.96004,-2.02606 -4.72224,-2.07656 z"
         style="display:inline;fill:#ffffff;fill-opacity:1;fill-rule:nonzero;stroke:none;enable-background:new" />
      <path
         style="display:inline;fill:#ffffff;fill-opacity:1;fill-rule:nonzero;stroke:none;enable-background:new"
         d="m 307.075,230.675 3.6125,6.24999 C 311.11367,236.84639 311.55108,236.8 312,236.8 c 0.44892,0 0.88633,0.0464 1.3125,0.12499 l 3.6125,-6.24999 4.15,2.39999 -3.6125,6.25 c 0.56875,0.66392 1.01421,1.43451 1.3125,2.275 H 326 v 4.80002 h -7.225 c -0.29829,0.84048 -0.74375,1.61107 -1.3125,2.275 l 3.6125,6.24999 -4.15,2.4 -3.6125,-6.25 c -0.42617,0.0786 -0.86358,0.12501 -1.3125,0.12501 -0.44892,0 -0.88633,-0.0464 -1.3125,-0.12501 l -3.6125,6.25 -4.15,-2.4 3.6125,-6.24999 c -0.56875,-0.66392 -1.01422,-1.43452 -1.3125,-2.275 H 298 V 241.6 h 7.225 c 0.29828,-0.84049 0.74375,-1.61108 1.3125,-2.275 l -3.6125,-6.25 z m 5.0625,8.52499 c -1.27936,-0.0367 -2.56565,0.46419 -3.48335,1.35634 -0.9177,0.89214 -1.45467,2.16378 -1.45415,3.44366 0,1.25664 0.51731,2.50554 1.40589,3.39412 0.88857,0.88857 2.13748,1.40588 3.39411,1.40588 1.25663,0 2.50554,-0.51731 3.39411,-1.40588 0.88858,-0.88858 1.40589,-2.13748 1.40589,-3.39412 4e-4,-1.23404 -0.4971,-2.46122 -1.35693,-3.3464 -0.85983,-0.88519 -2.07203,-1.41824 -3.30557,-1.45359 z"
         id="path3853"
         inkscape:connector-curvature="0"
         sodipodi:nodetypes="ccsccccccccccccscccccccccccsscssscss" />
      <path
         sodipodi:nodetypes="ccsccccccccccccscccccccccccsscssscss"
         inkscape:connector-curvature="0"
         id="path3855"
         d="m 117.61608,84.616075 19.35267,33.482145 c 2.28308,-0.42115 4.62632,-0.66965 7.03125,-0.66965 2.4049,0 4.74817,0.24851 7.03125,0.66965 l 19.35267,-33.482145 22.23215,12.857142 -19.35267,33.482143 c 3.04685,3.55669 5.43328,7.68488 7.03125,12.1875 H 219 v 25.7143 h -38.70535 c -1.59797,4.5026 -3.9844,8.6308 -7.03125,12.1875 l 19.35267,33.48212 -22.23215,12.85714 -19.35267,-33.48214 c -2.28308,0.42118 -4.62635,0.66965 -7.03125,0.66965 -2.40493,0 -4.74817,-0.2485 -7.03125,-0.66965 l -19.35267,33.48214 -22.23215,-12.85714 19.35267,-33.48212 c -3.04685,-3.5567 -5.4333,-7.6849 -7.03125,-12.1875 H 69 v -25.7143 h 38.70535 c 1.59795,-4.50262 3.9844,-8.63081 7.03125,-12.1875 L 95.38393,97.473217 Z m 27.12052,45.669645 c -6.8537,-0.1964 -13.74453,2.48671 -18.6608,7.26607 -4.91627,4.77936 -7.7929,11.59168 -7.79008,18.44821 0,6.73199 2.77131,13.42251 7.53153,18.18276 4.76023,4.76022 11.45077,7.53152 18.18275,7.53152 6.73198,0 13.42252,-2.7713 18.18275,-7.53152 4.76022,-4.76025 7.53153,-11.45077 7.53153,-18.18276 0.002,-6.61096 -2.66303,-13.18511 -7.26928,-17.92719 -4.60623,-4.74208 -11.10015,-7.59772 -17.7084,-7.78709 z"
         style="display:inline;fill:#ffffff;fill-opacity:1;fill-rule:nonzero;stroke:none;enable-background:new" />
      <path
         sodipodi:nodetypes="ccsccccccccccccscccccccccccsscssscss"
         inkscape:connector-curvature="0"
         id="path3857"
         d="m 428.48214,58.482144 2.58036,4.464285 c 0.30441,-0.05615 0.61684,-0.08928 0.9375,-0.08928 0.32065,0 0.63309,0.03313 0.9375,0.08928 l 2.58036,-4.464285 2.96428,1.714285 -2.58035,4.464286 c 0.40624,0.474225 0.72443,1.024651 0.9375,1.625 H 442 v 3.428573 h -5.16071 c -0.21307,0.600347 -0.53126,1.150773 -0.9375,1.625 l 2.58035,4.464279 -2.96428,1.71429 -2.58036,-4.46429 c -0.30441,0.0562 -0.61685,0.0893 -0.9375,0.0893 -0.32066,0 -0.63309,-0.0331 -0.9375,-0.0893 l -2.58036,4.46429 -2.96428,-1.71429 2.58035,-4.464279 c -0.40624,-0.474227 -0.72444,-1.024653 -0.9375,-1.625 H 422 v -3.428573 h 5.16071 c 0.21306,-0.600349 0.53126,-1.150775 0.9375,-1.625 l -2.58035,-4.464286 z m 3.61607,6.089285 c -0.91382,-0.02619 -1.8326,0.331562 -2.4881,0.96881 -0.65551,0.637248 -1.03906,1.545558 -1.03868,2.459762 0,0.897598 0.36951,1.789667 1.0042,2.424367 0.6347,0.634697 1.52677,1.004203 2.42437,1.004203 0.8976,0 1.78967,-0.369506 2.42437,-1.004203 0.63469,-0.6347 1.0042,-1.526769 1.0042,-2.424367 2.9e-4,-0.881461 -0.35507,-1.758015 -0.96924,-2.390292 -0.61416,-0.632278 -1.48002,-1.01303 -2.36112,-1.03828 z"
         style="display:inline;fill:#ffffff;fill-opacity:1;fill-rule:nonzero;stroke:none;enable-background:new" />
      <path
         style="display:inline;fill:#ffffff;fill-opacity:1;fill-rule:nonzero;stroke:none;stroke-width:1.1875;enable-background:new"
         d="m 424.65802,102.95804 2.45135,4.24107 c 0.28919,-0.0533 0.58599,-0.0847 0.89063,-0.0847 0.30461,0 0.60144,0.0314 0.89062,0.0847 l 2.45136,-4.24107 2.81604,1.62857 -2.45132,4.24107 c 0.38592,0.45051 0.68821,0.97341 0.89063,1.54375 H 437.5 v 3.25713 h -4.90267 c -0.20242,0.57035 -0.50471,1.09324 -0.89063,1.54375 l 2.45132,4.24107 -2.81604,1.62858 -2.45136,-4.24108 c -0.28918,0.0534 -0.58601,0.0847 -0.89062,0.0847 -0.30464,0 -0.60144,-0.0314 -0.89063,-0.0847 l -2.45135,4.24108 -2.81604,-1.62858 2.45132,-4.24107 c -0.38592,-0.45051 -0.68821,-0.9734 -0.89063,-1.54375 H 418.5 v -3.25713 h 4.90267 c 0.20242,-0.57034 0.50471,-1.09324 0.89063,-1.54375 l -2.45132,-4.24107 z m 3.43528,5.78482 c -0.86813,-0.0249 -1.74097,0.31497 -2.3637,0.92037 -0.62273,0.60537 -0.98711,1.46829 -0.98675,2.33678 0,0.85272 0.35103,1.70016 0.95399,2.30313 0.60296,0.60296 1.45044,0.954 2.30316,0.954 0.85272,0 1.7002,-0.35104 2.30316,-0.954 0.60296,-0.60297 0.95399,-1.45041 0.95399,-2.30313 2.8e-4,-0.8374 -0.33732,-1.67013 -0.9208,-2.27078 -0.58343,-0.60067 -1.40601,-0.9624 -2.24305,-0.98637 z"
         id="path3859"
         inkscape:connector-curvature="0"
         sodipodi:nodetypes="ccsccccccccccccscccccccccccsscssscss" />
      <path
         sodipodi:nodetypes="ccsccccccccccccscccccccccccsscssscss"
         inkscape:connector-curvature="0"
         id="path3861"
         d="m 421.53749,141.33751 1.80626,3.125 c 0.21309,-0.0393 0.43178,-0.0625 0.65625,-0.0625 0.22445,0 0.44316,0.0232 0.65625,0.0625 l 1.80626,-3.125 2.07498,1.19999 -1.80624,3.125 c 0.28436,0.33196 0.5071,0.71726 0.65625,1.1375 H 431 v 2.39999 h -3.6125 c -0.14915,0.42025 -0.37189,0.80555 -0.65625,1.1375 l 1.80624,3.125 -2.07498,1.2 -1.80626,-3.125 c -0.21309,0.0393 -0.4318,0.0625 -0.65625,0.0625 -0.22447,0 -0.44316,-0.0232 -0.65625,-0.0625 l -1.80626,3.125 -2.07498,-1.2 1.80624,-3.125 c -0.28437,-0.33195 -0.50711,-0.71725 -0.65625,-1.1375 H 417 V 146.8 h 3.6125 c 0.14914,-0.42025 0.37188,-0.80555 0.65625,-1.1375 l -1.80624,-3.125 z m 2.53126,4.26249 c -0.63968,-0.0183 -1.28282,0.23208 -1.74167,0.67816 -0.45886,0.44607 -0.72735,1.08189 -0.72709,1.72184 0,0.62832 0.25866,1.25276 0.70294,1.69705 0.44429,0.44429 1.06875,0.70295 1.69707,0.70295 0.62832,0 1.25277,-0.25866 1.69706,-0.70295 C 426.14135,149.25276 426.4,148.62832 426.4,148 c 2.1e-4,-0.61702 -0.24855,-1.23062 -0.67848,-1.6732 -0.4299,-0.4426 -1.036,-0.70912 -1.65277,-0.7268 z"
         style="display:inline;fill:#ffffff;fill-opacity:1;fill-rule:nonzero;stroke:none;stroke-width:1.16667;enable-background:new" />
    </g>
    <g
       inkscape:groupmode="layer"
       id="layer5"
       inkscape:label="Highlights"
       style="display:inline">
      <path
         style="color:#bebebe;display:inline;overflow:visible;visibility:visible;opacity:0.13;fill:#ffffff;fill-opacity:1;fill-rule:nonzero;stroke:none;stroke-width:0;marker:none;enable-background:accumulate"
         d="M 84,47 C 56.836703,47 35,68.836703 35,96 v 1 C 35,69.836703 56.836703,48 84,48 h 120 c 27.1633,0 49,21.836703 49,49 V 96 C 253,68.836703 231.1633,47 204,47 Z"
         id="rect3894"
         inkscape:connector-curvature="0" />
      <path
         style="color:#bebebe;display:inline;overflow:visible;visibility:visible;opacity:0.13;fill:#ffffff;fill-opacity:1;fill-rule:nonzero;stroke:none;stroke-width:0;marker:none;enable-background:accumulate"
         d="m 424,54 c -3.3413,0 -6,2.658703 -6,6 v 1 c 0,-3.341297 2.6587,-6 6,-6 h 16 c 3.3413,0 6,2.658703 6,6 v -1 c 0,-3.341297 -2.6587,-6 -6,-6 z"
         id="rect3900"
         inkscape:connector-curvature="0" />
      <path
         style="color:#bebebe;display:inline;overflow:visible;visibility:visible;opacity:0.13;fill:#ffffff;fill-opacity:1;fill-rule:nonzero;stroke:none;stroke-width:0;marker:none;enable-background:accumulate"
         d="m 300,224 c -4.4493,0 -8,3.5507 -8,8 v 1 c 0,-4.4493 3.5507,-8 8,-8 h 24 c 4.4493,0 8,3.5507 8,8 v -1 c 0,-4.4493 -3.5507,-8 -8,-8 z"
         id="rect3902"
         inkscape:connector-curvature="0" />
      <path
         style="color:#bebebe;display:inline;overflow:visible;visibility:visible;opacity:0.13;fill:#ffffff;fill-opacity:1;fill-rule:nonzero;stroke:none;stroke-width:0;marker:none;enable-background:accumulate"
         d="m 310,33 c -9.4353,0 -17,7.564703 -17,17 v 1 c 0,-9.435297 7.5647,-17 17,-17 h 52 c 9.4353,0 17,7.564703 17,17 v -1 c 0,-9.435297 -7.5647,-17 -17,-17 z"
         id="rect3904"
         inkscape:connector-curvature="0" />
      <path
         style="color:#bebebe;display:inline;overflow:visible;visibility:visible;opacity:0.13;fill:#ffffff;fill-opacity:1;fill-rule:nonzero;stroke:none;stroke-width:0;marker:none;enable-background:accumulate"
         d="m 302.5,143 c -6.3883,0 -11.5,5.1117 -11.5,11.5 v 1 c 0,-6.3883 5.1117,-11.5 11.5,-11.5 h 35 c 6.3883,0 11.5,5.1117 11.5,11.5 v -1 c 0,-6.3883 -5.1117,-11.5 -11.5,-11.5 z"
         id="rect3906"
         inkscape:connector-curvature="0" />
      <path
         id="path4085"
         d="m 204,266 c 27.1633,0 49,-21.8367 49,-49 v -1 c 0,27.1633 -21.8367,49 -49,49 H 84 C 56.8367,265 35,243.1633 35,216 v 1 c 0,27.1633 21.8367,49 49,49 z"
         style="color:#bebebe;display:inline;overflow:visible;visibility:visible;opacity:0.5;fill:#000000;fill-opacity:1;fill-rule:nonzero;stroke:none;stroke-width:0;marker:none;enable-background:accumulate"
         inkscape:connector-curvature="0" />
      <path
         id="path4091"
         d="m 440,83 c 3.3413,0 6,-2.6587 6,-6 v -1 c 0,3.3413 -2.6587,6 -6,6 h -16 c -3.3413,0 -6,-2.6587 -6,-6 v 1 c 0,3.3413 2.6587,6 6,6 z"
         style="color:#bebebe;display:inline;overflow:visible;visibility:visible;opacity:0.5;fill:#000000;fill-opacity:1;fill-rule:nonzero;stroke:none;stroke-width:0;marker:none;enable-background:accumulate"
         inkscape:connector-curvature="0" />
      <path
         id="path4093"
         d="m 324,265 c 4.4493,0 8,-3.5507 8,-8 v -1 c 0,4.4493 -3.5507,8 -8,8 h -24 c -4.4493,0 -8,-3.5507 -8,-8 v 1 c 0,4.4493 3.5507,8 8,8 z"
         style="color:#bebebe;display:inline;overflow:visible;visibility:visible;opacity:0.5;fill:#000000;fill-opacity:1;fill-rule:nonzero;stroke:none;stroke-width:0;marker:none;enable-background:accumulate"
         inkscape:connector-curvature="0" />
      <path
         id="path4095"
         d="m 362,120 c 9.4353,0 17,-7.5647 17,-17 v -1 c 0,9.4353 -7.5647,17 -17,17 h -52 c -9.4353,0 -17,-7.5647 -17,-17 v 1 c 0,9.4353 7.5647,17 17,17 z"
         style="color:#bebebe;display:inline;overflow:visible;visibility:visible;opacity:0.5;fill:#000000;fill-opacity:1;fill-rule:nonzero;stroke:none;stroke-width:0;marker:none;enable-background:accumulate"
         inkscape:connector-curvature="0" />
      <path
         id="path4097"
         d="m 337.5,202 c 6.3883,0 11.5,-5.1117 11.5,-11.5 v -1 c 0,6.3883 -5.1117,11.5 -11.5,11.5 h -35 c -6.3883,0 -11.5,-5.1117 -11.5,-11.5 v 1 c 0,6.3883 5.1117,11.5 11.5,11.5 z"
         style="color:#bebebe;display:inline;overflow:visible;visibility:visible;opacity:0.5;fill:#000000;fill-opacity:1;fill-rule:nonzero;stroke:none;stroke-width:0;marker:none;enable-background:accumulate"
         inkscape:connector-curvature="0" />
      <path
         inkscape:connector-curvature="0"
         id="path4280"
         d="M 84,265 C 56.836703,265 35,243.1633 35,216 v -1 c 0,27.1633 21.836703,49 49,49 h 120 c 27.1633,0 49,-21.8367 49,-49 v 1 c 0,27.1633 -21.8367,49 -49,49 z"
         style="color:#bebebe;display:inline;overflow:visible;visibility:visible;opacity:0.1;fill:#ffffff;fill-opacity:1;fill-rule:nonzero;stroke:none;stroke-width:0;marker:none;enable-background:accumulate" />
      <path
         style="color:#bebebe;display:inline;overflow:visible;visibility:visible;opacity:0.1;fill:#ffffff;fill-opacity:1;fill-rule:nonzero;stroke:none;stroke-width:0;marker:none;enable-background:accumulate"
         d="m 300,264 c -4.4493,0 -8,-3.5507 -8,-8 v -1 c 0,4.4493 3.5507,8 8,8 h 24 c 4.4493,0 8,-3.5507 8,-8 v 1 c 0,4.4493 -3.5507,8 -8,8 z"
         id="path4294"
         inkscape:connector-curvature="0" />
      <path
         style="color:#bebebe;display:inline;overflow:visible;visibility:visible;opacity:0.1;fill:#ffffff;fill-opacity:1;fill-rule:nonzero;stroke:none;stroke-width:0;marker:none;enable-background:accumulate"
         d="m 302.5,201 c -6.3883,0 -11.5,-5.1117 -11.5,-11.5 v -1 c 0,6.3883 5.1117,11.5 11.5,11.5 h 35 c 6.3883,0 11.5,-5.1117 11.5,-11.5 v 1 c 0,6.3883 -5.1117,11.5 -11.5,11.5 z"
         id="path4296"
         inkscape:connector-curvature="0" />
      <path
         style="color:#bebebe;display:inline;overflow:visible;visibility:visible;opacity:0.1;fill:#ffffff;fill-opacity:1;fill-rule:nonzero;stroke:none;stroke-width:0;marker:none;enable-background:accumulate"
         d="m 310,119 c -9.4353,0 -17,-7.5647 -17,-17 v -1 c 0,9.4353 7.5647,17 17,17 h 52 c 9.4353,0 17,-7.5647 17,-17 v 1 c 0,9.4353 -7.5647,17 -17,17 z"
         id="path4298"
         inkscape:connector-curvature="0" />
      <path
         style="color:#bebebe;display:inline;overflow:visible;visibility:visible;opacity:0.1;fill:#ffffff;fill-opacity:1;fill-rule:nonzero;stroke:none;stroke-width:0;marker:none;enable-background:accumulate"
         d="m 424,82 c -3.3413,0 -6,-2.658703 -6,-6 v -1 c 0,3.341297 2.6587,6 6,6 h 16 c 3.3413,0 6,-2.658703 6,-6 v 1 c 0,3.341297 -2.6587,6 -6,6 z"
         id="path4300"
         inkscape:connector-curvature="0" />
    </g>
    <g
       inkscape:groupmode="layer"
       id="layer3"
       inkscape:label="Border"
       style="display:inline">
      <path
         style="color:#bebebe;display:inline;overflow:visible;visibility:visible;opacity:0.41;fill:#000000;fill-opacity:1;fill-rule:nonzero;stroke:none;stroke-width:0;marker:none;enable-background:accumulate"
         d="m 424,53 c -3.878,0 -7,3.122 -7,7 v 16 c 0,3.878 3.122,7 7,7 h 16 c 3.878,0 7,-3.122 7,-7 V 60 c 0,-3.878 -3.122,-7 -7,-7 z m 0,1 h 16 c 3.3413,0 6,2.658703 6,6 v 16 c 0,3.341297 -2.6587,6 -6,6 h -16 c -3.3413,0 -6,-2.658703 -6,-6 V 60 c 0,-3.341297 2.6587,-6 6,-6 z"
         id="rect4151"
         inkscape:connector-curvature="0" />
      <path
         style="color:#bebebe;display:inline;overflow:visible;visibility:visible;opacity:0.41;fill:#000000;fill-opacity:1;fill-rule:nonzero;stroke:none;stroke-width:0;marker:none;enable-background:accumulate"
         d="m 300,223 c -4.986,0 -9,4.014 -9,9 v 24 c 0,4.986 4.014,9 9,9 h 24 c 4.986,0 9,-4.014 9,-9 v -24 c 0,-4.986 -4.014,-9 -9,-9 z m 0,1 h 24 c 4.4493,0 8,3.5507 8,8 v 24 c 0,4.4493 -3.5507,8 -8,8 h -24 c -4.4493,0 -8,-3.5507 -8,-8 v -24 c 0,-4.4493 3.5507,-8 8,-8 z"
         id="rect4783"
         inkscape:connector-curvature="0" />
      <path
         style="color:#bebebe;display:inline;overflow:visible;visibility:visible;opacity:0.41;fill:#000000;fill-opacity:1;fill-rule:nonzero;stroke:none;stroke-width:0;marker:none;enable-background:accumulate"
         d="m 302.5,142 c -6.925,0 -12.5,5.575 -12.5,12.5 v 35 c 0,6.925 5.575,12.5 12.5,12.5 h 35 c 6.925,0 12.5,-5.575 12.5,-12.5 v -35 c 0,-6.925 -5.575,-12.5 -12.5,-12.5 z m 0,1 h 35 c 6.3883,0 11.5,5.1117 11.5,11.5 v 35 c 0,6.3883 -5.1117,11.5 -11.5,11.5 h -35 c -6.3883,0 -11.5,-5.1117 -11.5,-11.5 v -35 c 0,-6.3883 5.1117,-11.5 11.5,-11.5 z"
         id="rect4515"
         inkscape:connector-curvature="0" />
      <path
         style="color:#bebebe;display:inline;overflow:visible;visibility:visible;opacity:0.41;fill:#000000;fill-opacity:1;fill-rule:nonzero;stroke:none;stroke-width:0;marker:none;enable-background:accumulate"
         d="m 310,32 c -9.972,0 -18,8.028 -18,18 v 52 c 0,9.972 8.028,18 18,18 h 52 c 9.972,0 18,-8.028 18,-18 V 50 c 0,-9.972 -8.028,-18 -18,-18 z m 0,1 h 52 c 9.4353,0 17,7.564703 17,17 v 52 c 0,9.4353 -7.5647,17 -17,17 h -52 c -9.4353,0 -17,-7.5647 -17,-17 V 50 c 0,-9.435297 7.5647,-17 17,-17 z"
         id="rect4511"
         inkscape:connector-curvature="0" />
      <path
         style="color:#bebebe;display:inline;overflow:visible;visibility:visible;opacity:0.41;fill:#000000;fill-opacity:1;fill-rule:nonzero;stroke:none;stroke-width:0;marker:none;enable-background:accumulate"
         d="M 84,46 C 56.3,46 34,68.3 34,96 v 120 c 0,27.7 22.3,50 50,50 h 120 c 27.7,0 50,-22.3 50,-50 V 96 C 254,68.3 231.7,46 204,46 Z m 0,1 h 120 c 27.1633,0 49,21.836703 49,49 v 120 c 0,27.1633 -21.8367,49 -49,49 H 84 C 56.836703,265 35,243.1633 35,216 V 96 C 35,68.836703 56.836703,47 84,47 Z"
         id="rect4040"
         inkscape:connector-curvature="0" />
    </g>
  </g>
</svg>
